<svg width="28" height="29" viewBox="0 0 28 29" fill="none" xmlns="http://www.w3.org/2000/svg">
<path fill-rule="evenodd" clip-rule="evenodd" d="M25.6663 14.5V22.9068C25.6663 24.4045 24.0902 25.3786 22.7506 24.7088C21.6679 24.1675 20.3781 24.2478 19.3708 24.9193C18.2378 25.6747 16.7616 25.6747 15.6285 24.9193L15.2171 24.645C14.4799 24.1535 13.5195 24.1535 12.7823 24.645L12.3708 24.9193C11.2378 25.6747 9.76159 25.6747 8.6285 24.9193C7.62128 24.2478 6.33147 24.1675 5.24874 24.7088C3.90915 25.3786 2.33301 24.4045 2.33301 22.9068V14.5C2.33301 8.05672 7.55635 2.83337 13.9997 2.83337C20.443 2.83337 25.6663 8.05672 25.6663 14.5ZM11.0207 17.2971C10.6325 17.0093 10.0845 17.0908 9.79673 17.479C9.50896 17.8672 9.5904 18.4152 9.97863 18.703C11.1131 19.5439 12.5005 20.0417 13.9997 20.0417C15.4988 20.0417 16.8862 19.5439 18.0207 18.703C18.409 18.4152 18.4904 17.8672 18.2026 17.479C17.9149 17.0908 17.3669 17.0093 16.9786 17.2971C16.1289 17.9269 15.1032 18.2917 13.9997 18.2917C12.8961 18.2917 11.8705 17.9269 11.0207 17.2971ZM18.6663 11.5834C18.6663 12.5499 18.144 13.3334 17.4997 13.3334C16.8553 13.3334 16.333 12.5499 16.333 11.5834C16.333 10.6169 16.8553 9.83337 17.4997 9.83337C18.144 9.83337 18.6663 10.6169 18.6663 11.5834ZM10.4997 13.3334C11.144 13.3334 11.6663 12.5499 11.6663 11.5834C11.6663 10.6169 11.144 9.83337 10.4997 9.83337C9.85534 9.83337 9.33301 10.6169 9.33301 11.5834C9.33301 12.5499 9.85534 13.3334 10.4997 13.3334Z" fill="#CE7D63"/>
</svg>
