<svg width="20" height="20" viewBox="0 0 20 20" fill="none" xmlns="http://www.w3.org/2000/svg">
<path d="M15.834 9.16668H10.834V4.16668C10.834 3.94566 10.7462 3.7337 10.5899 3.57742C10.4336 3.42114 10.2217 3.33334 10.0007 3.33334C9.77964 3.33334 9.56768 3.42114 9.4114 3.57742C9.25512 3.7337 9.16732 3.94566 9.16732 4.16668V9.16668H4.16732C3.9463 9.16668 3.73434 9.25447 3.57806 9.41075C3.42178 9.56703 3.33398 9.779 3.33398 10C3.33398 10.221 3.42178 10.433 3.57806 10.5893C3.73434 10.7455 3.9463 10.8333 4.16732 10.8333H9.16732V15.8333C9.16732 16.0544 9.25512 16.2663 9.4114 16.4226C9.56768 16.5789 9.77964 16.6667 10.0007 16.6667C10.2217 16.6667 10.4336 16.5789 10.5899 16.4226C10.7462 16.2663 10.834 16.0544 10.834 15.8333V10.8333H15.834C16.055 10.8333 16.267 10.7455 16.4232 10.5893C16.5795 10.433 16.6673 10.221 16.6673 10C16.6673 9.779 16.5795 9.56703 16.4232 9.41075C16.267 9.25447 16.055 9.16668 15.834 9.16668Z" fill="#E7BEB1"/>
</svg>
